<?xml version="1.0" standalone="no"?>
<!DOCTYPE svg PUBLIC "-//W3C//DTD SVG 20010904//EN"
 "http://www.w3.org/TR/2001/REC-SVG-20010904/DTD/svg10.dtd">
<svg version="1.0" xmlns="http://www.w3.org/2000/svg"
 width="1280.000000pt" height="1280.000000pt" viewBox="0 0 1280.000000 1280.000000"
 preserveAspectRatio="xMidYMid meet">
<metadata>
Created by potrace 1.15, written by Peter Selinger 2001-2017
</metadata>
<g transform="translate(0.000000,1280.000000) scale(0.100000,-0.100000)"
fill="#000000" stroke="none">
<path d="M4036 11208 c-66 -294 -135 -590 -143 -608 -3 -8 -5 -21 -4 -28 1 -8
-3 -19 -9 -27 -6 -7 -10 -17 -9 -21 1 -5 -1 -16 -4 -24 -3 -8 -13 -49 -21 -90
-9 -41 -50 -232 -91 -425 -42 -192 -93 -431 -115 -530 -21 -99 -54 -250 -73
-335 -19 -85 -38 -174 -42 -197 -4 -24 -11 -45 -15 -48 -5 -3 -7 -12 -4 -20 3
-8 2 -20 -2 -27 -5 -7 -9 -21 -10 -30 -1 -10 -3 -21 -4 -25 -2 -5 -4 -12 -5
-18 -1 -5 -5 -17 -8 -25 -6 -15 -39 -164 -123 -555 -25 -115 -49 -228 -55
-250 -5 -22 -17 -75 -26 -117 -10 -43 -21 -78 -25 -78 -5 0 -26 11 -48 25 -22
14 -42 25 -45 25 -4 0 -21 11 -38 24 -31 22 -259 131 -317 151 -3 1 -17 7 -32
13 -93 39 -290 67 -399 58 -100 -8 -221 -39 -284 -73 -277 -147 -429 -441
-412 -797 3 -68 13 -145 22 -176 91 -297 396 -520 765 -561 102 -11 227 -12
244 -1 6 4 19 5 29 4 10 -2 24 2 32 8 7 6 17 10 21 9 5 -1 16 0 24 3 8 3 51
18 95 33 190 63 412 201 517 320 l44 50 58 275 c31 151 66 302 76 335 10 34
21 88 25 120 4 33 17 101 30 150 13 50 31 124 39 165 8 41 38 183 66 315 28
132 63 294 76 360 14 66 28 127 31 135 4 8 5 19 4 24 -1 4 3 14 10 22 6 8 9
20 6 28 -3 7 -2 17 3 22 5 5 20 65 34 134 14 69 50 240 80 380 30 140 67 315
83 387 15 73 33 133 38 133 6 0 120 -79 255 -175 370 -264 801 -572 907 -647
52 -38 98 -68 104 -68 5 0 9 -4 9 -10 0 -5 4 -10 10 -10 21 0 250 -172 250
-188 0 -9 -18 -98 -40 -197 -82 -375 -151 -692 -166 -765 -8 -41 -18 -82 -21
-90 -3 -8 -5 -20 -4 -27 1 -6 -3 -14 -8 -18 -6 -3 -8 -12 -4 -20 3 -9 0 -21
-6 -29 -7 -8 -11 -18 -10 -22 1 -5 0 -16 -4 -24 -9 -25 -28 -113 -32 -155 -5
-50 -73 -352 -84 -374 -5 -9 -18 -68 -31 -131 -39 -205 -61 -300 -69 -300 -5
0 -23 11 -42 25 -97 70 -197 126 -309 173 -19 8 -46 21 -60 27 -35 17 -91 35
-126 40 -16 2 -72 11 -124 20 -112 20 -280 16 -375 -9 -82 -22 -208 -86 -277
-141 -112 -88 -196 -225 -238 -385 -28 -107 -39 -349 -20 -444 12 -59 85 -227
102 -234 4 -2 8 -10 8 -17 0 -7 13 -25 30 -38 17 -14 30 -29 30 -34 0 -8 95
-93 104 -93 3 0 27 -15 53 -34 27 -18 71 -45 98 -59 62 -30 196 -77 224 -77
11 0 22 -4 25 -9 3 -5 15 -7 25 -4 10 3 22 0 25 -6 10 -15 282 -15 291 0 4 5
17 9 28 7 12 -1 27 0 32 3 6 4 35 12 65 19 194 45 436 180 592 331 l55 54 38
170 c20 94 42 175 47 182 5 7 7 17 3 23 -4 6 -2 17 4 24 7 8 14 38 18 67 3 30
9 59 13 64 4 6 12 33 18 60 7 28 37 163 67 300 31 138 67 300 80 360 63 287
118 522 126 536 4 9 31 117 59 240 136 600 258 1139 276 1224 9 39 18 77 21
85 3 8 7 26 9 40 6 46 134 593 149 637 8 24 18 61 21 83 6 36 4 43 -22 63 -66
52 -579 425 -633 460 -33 21 -76 54 -98 72 -21 19 -135 104 -253 189 -118 85
-220 159 -225 163 -6 4 -26 16 -45 26 -19 10 -75 48 -125 85 -49 38 -148 108
-220 157 -531 362 -611 415 -632 415 -5 0 -31 -96 -57 -212z m462 -808 c366
-266 462 -334 534 -380 39 -25 85 -58 102 -74 17 -16 42 -36 56 -45 14 -9 66
-45 115 -81 50 -37 187 -137 306 -223 l217 -156 -15 -58 c-7 -32 -16 -65 -18
-73 -2 -8 -12 -46 -21 -85 -9 -38 -18 -72 -19 -73 -2 -2 -112 74 -245 170
-405 290 -425 304 -440 310 -8 4 -87 59 -175 122 -88 64 -275 198 -415 298
-140 100 -259 185 -264 189 -10 9 30 236 45 255 5 6 6 14 3 17 -9 9 3 37 16
37 6 0 104 -68 218 -150z"/>
<path d="M7560 6490 l0 -2430 -52 29 c-121 68 -313 101 -583 101 -227 0 -430
-39 -652 -124 -594 -229 -975 -625 -922 -958 40 -254 293 -440 664 -489 231
-30 633 33 909 142 200 79 443 230 576 356 90 86 187 221 218 306 53 140 52
104 49 1595 -1 760 1 1382 4 1382 4 0 123 -57 265 -126 542 -264 862 -425 944
-475 47 -28 101 -60 120 -71 177 -101 362 -286 449 -449 53 -100 79 -190 96
-339 19 -161 19 -274 -1 -391 -39 -229 -187 -586 -300 -725 -19 -23 -34 -44
-34 -48 0 -3 29 -6 63 -6 l64 0 55 77 c228 322 339 654 341 1018 1 243 -33
389 -144 605 l-60 116 16 44 c52 145 95 404 95 568 0 317 -139 655 -392 957
-99 118 -293 307 -443 431 -66 54 -129 107 -140 117 -26 24 -342 256 -517 380
-258 183 -377 334 -438 559 -22 82 -41 197 -42 246 l0 32 -104 0 -104 0 0
-2430z m271 1234 c92 -37 464 -222 599 -298 162 -90 383 -236 476 -314 182
-153 432 -437 513 -583 45 -80 87 -201 101 -291 13 -80 10 -471 -3 -485 -4 -3
-24 13 -44 38 -65 80 -276 283 -393 380 -142 118 -299 236 -471 354 -71 50
-158 112 -192 140 -84 67 -254 233 -297 290 -19 26 -54 71 -78 101 -129 165
-236 405 -267 602 -8 53 -13 92 -10 92 1 0 30 -12 66 -26z"/>
</g>
</svg>
